<?xml version="1.0" encoding="UTF-8"?>
<svg enable-background="new 0 0 1366 768" version="1.1" viewBox="0 0 1366 768" xml:space="preserve" xmlns="http://www.w3.org/2000/svg">
<style type="text/css">
	.st0{fill:url(#b);stroke:#A71E22;stroke-width:3;stroke-miterlimit:5;}
	.st1{opacity:0.2;}
	.st2{fill:url(#a);stroke:#A71E22;stroke-width:3;stroke-miterlimit:5;}
</style>
						<linearGradient id="b" x1="4861" x2="5360.9" y1="43.555" y2="470.68" gradientTransform="matrix(-1 0 0 -1 6294.4 767.89)" gradientUnits="userSpaceOnUse">
						<stop stop-color="#A71E22" offset="0"/>
						<stop stop-color="#D82D27" offset=".7282"/>
					</linearGradient>
					<path class="st0" d="m1152.1 125.7c-17.8 0-34.9 7.1-47.5 19.8l-189.3 198c-5.4 5.9-14.5 5.9-19.9 0l-178.5-186.9c66.7-84.4 169.6-138.6 285.1-138.6 201 0 364 12.7 364 365.9-0.1 353.2-162.9 365.9-364 365.9-94.5 0-180.5-36.2-245.1-95.6v-253.6c0-6.1 7.3-9 11.4-4.7l116.8 135c10.6 12.4 29.7 12.4 40.5 0l116.8-135c4.2-4.3 11.4-1.2 11.4 4.7v261.7c72.8 0 131.9-48.9 131.9-122.1v-380.5c0.3-18.8-14.9-34-33.6-34z"/>
<g class="st1">
	<path d="m907.3 559.1c1.2 0 2.4-0.3 3.6-0.4-19.1 47.5-31.6 98.3-36.3 151-35.8-14.5-69.3-35-98.9-61v-218.8l98.7 114.1c8.2 9.6 20.3 15.1 32.9 15.1z"/>
	<path d="m1003.9 37c94.1 0 208.5 1.2 267.9 66.6 25 27.6-33 139.9-67.2 154.4v-96.2c0-28.1-22.7-51-50.7-51-22.1 0-43.7 9-59.6 25l-187.2 195.7-166-173.6c66.4-77 161.3-120.9 262.8-120.9z"/>
</g>
						<linearGradient id="a" x1="4116.4" x2="4616.3" y1="43.545" y2="470.67" gradientTransform="matrix(1 0 0 -1 -4183.8 767.89)" gradientUnits="userSpaceOnUse">
						<stop stop-color="#A71E22" offset="0"/>
						<stop stop-color="#D82D27" offset=".7282"/>
					</linearGradient>
					<path class="st2" d="m213.9 125.7c17.8 0 34.9 7.1 47.5 19.8l189.3 198c5.4 5.9 14.5 5.9 19.9 0l178.5-186.8c-66.7-84.5-169.6-138.7-285.1-138.7-201 0-364 12.7-364 365.9 0.1 353.2 162.9 365.9 364 365.9 94.5 0 180.5-36.2 245.1-95.6v-253.6c0-6.1-7.3-9-11.4-4.7l-117 135c-10.6 12.4-29.7 12.4-40.5 0l-116.8-135c-4.2-4.3-11.4-1.2-11.4 4.7v261.7c-72.8 0-131.9-48.9-131.9-122.1v-380.5c-0.1-18.8 15.1-34 33.8-34z"/>
<g class="st1">
	<path d="m458.6 559.1c-1.2 0-2.4-0.3-3.6-0.4 19.1 47.5 31.6 98.3 36.3 151 35.8-14.5 69.3-35 98.9-61v-218.8l-98.7 114.1c-8.1 9.6-20.2 15.1-32.9 15.1z"/>
	<path d="m362.1 37c-94.1 0-208.5 1.2-267.9 66.6-25 27.6 33 139.9 67.2 154.4v-96.2c0-28.1 22.7-51 50.7-51 22.1 0 43.7 9 59.6 25l187.1 195.7 166-173.6c-66.3-77-161.2-120.9-262.7-120.9z"/>
</g>
</svg>
